# xmcd
#
# Track frame offsets: 
#        150
#        14549
#        25779
#        45742
#        64417
#        80590
#        93749
#        114768
#        131026
#        142830
#        162404
#
# Disc length: 2318 seconds
#
# Revision: 5
# Processed by: cddbd v1.5.2PL0 Copyright (c) Steve Scherf et al.
# Submitted via: ExactAudioCopyFreeDBPlugin 1.0
#
DISCID=91090c0b
DTITLE=The Paul Butterfield Blues Band - The Paul Butterfield Blues Ba
DTITLE=nd (2014 SACD rem. AFZ 187)
DYEAR=1965
DGENRE=Blues
TTITLE0=Born In Chicago
TTITLE1=Shake Your Money-Maker
TTITLE2=Blues With A Feeling
TTITLE3=Thank You Mr. Poobah
TTITLE4=I Got My Mojo Working
TTITLE5=Mellow Down Easy
TTITLE6=Screamin'
TTITLE7=Our Love Is Drifting
TTITLE8=Mystery Train
TTITLE9=Last Night
TTITLE10=Look Over Yonders Wall
EXTD=
EXTT0=
EXTT1=
EXTT2=
EXTT3=
EXTT4=
EXTT5=
EXTT6=
EXTT7=
EXTT8=
EXTT9=
EXTT10=
PLAYORDER=
